<svg width="240" height="24" viewBox="0 0 240 24" fill="none" xmlns="http://www.w3.org/2000/svg">
<rect width="240" height="24" fill="#111111"/>
<path d="M187.999 10.5879C188.014 11.2874 187.844 11.9442 187.566 12.5834C187.306 13.1799 186.974 13.7338 186.556 14.2344C186.372 14.451 186.184 14.6641 185.982 14.8629C184.917 15.9246 183.831 16.9649 182.698 17.9556C182.33 18.2751 181.961 18.5947 181.55 18.8645C181.268 19.0492 180.785 19.0456 180.503 18.8504C180.37 18.758 180.233 18.6657 180.11 18.5627C178.677 17.359 177.291 16.1021 175.963 14.7848C175.202 14.0285 174.639 13.1515 174.285 12.1431C174.112 11.646 173.996 11.1276 174 10.6021C174.007 9.40549 174.451 8.40419 175.483 7.7047C175.823 7.4739 176.198 7.31412 176.58 7.16854C176.815 7.08332 177.057 7.05492 177.302 7.02652C178.327 6.91289 179.251 7.16499 180.074 7.77216C180.334 7.9639 180.583 8.17694 180.835 8.38289C180.915 8.4468 181.099 8.45034 181.178 8.38998C181.243 8.34027 181.312 8.29767 181.377 8.24796C181.503 8.14499 181.619 8.03137 181.745 7.9284C181.871 7.82543 182.001 7.72956 182.138 7.64079C182.806 7.2076 183.535 6.98745 184.34 7.00166C185.278 7.01586 186.097 7.33543 186.819 7.91774C187.342 8.33673 187.685 8.87998 187.88 9.512C187.988 9.86352 187.996 10.2257 187.999 10.5879ZM174.949 10.5559C174.964 10.7086 174.967 10.9145 175.007 11.1098C175.159 11.8697 175.447 12.5727 175.891 13.2118C176.147 13.5776 176.433 13.9149 176.754 14.2273C177.945 15.3884 179.168 16.514 180.438 17.5934C180.561 17.6964 180.698 17.7851 180.832 17.8775C180.936 17.952 181.185 17.9378 181.297 17.8561C181.362 17.81 181.434 17.7674 181.496 17.7141C182.947 16.5317 184.271 15.218 185.588 13.8971C185.617 13.8687 185.643 13.8368 185.668 13.8048C186.151 13.2509 186.534 12.6366 186.783 11.9478C187.036 11.2519 187.122 10.5417 186.953 9.81382C186.916 9.65759 186.852 9.50846 186.783 9.36288C186.624 9.02912 186.375 8.76281 186.079 8.53912C185.578 8.15919 184.997 7.9852 184.379 7.91419C184.3 7.90354 184.217 7.90709 184.134 7.91419C183.423 7.99586 182.791 8.25506 182.257 8.7273C182.106 8.86223 181.969 9.01136 181.821 9.14984C181.73 9.2315 181.64 9.31317 181.539 9.38063C181.474 9.42679 181.398 9.46584 181.323 9.48715C180.991 9.57236 180.669 9.54751 180.399 9.32026C180.182 9.13918 179.987 8.9297 179.774 8.74151C179.244 8.26216 178.616 7.99941 177.905 7.91419C177.826 7.90354 177.743 7.89998 177.66 7.91064C177.125 7.9639 176.613 8.10238 176.155 8.38644C175.368 8.87644 174.978 9.59013 174.946 10.5488L174.949 10.5559Z" fill="#FF0000"/>
<path d="M209 8C209 6.89543 209.895 6 211 6H219.194C220.298 6 221.194 6.89543 221.194 8V15.3226C221.194 16.4271 220.298 17.3226 219.194 17.3226H211C209.895 17.3226 209 16.4271 209 15.3226V8Z" fill="white"/>
<path d="M209 20L218 14.0909L209 10V20Z" fill="white"/>
<line x1="215.224" y1="8.48242" x2="215.224" y2="15.4824" stroke="black"/>
<line x1="211.484" y1="11.9688" x2="218.484" y2="11.9688" stroke="black"/>
<rect x="138" y="4" width="23" height="17" rx="2" fill="#707070"/>
<path d="M145.844 16.0994C145.314 16.0994 144.842 16.0083 144.427 15.826C144.015 15.6413 143.69 15.388 143.451 15.0661C143.214 14.7417 143.092 14.3677 143.085 13.9439H144.633C144.643 14.1214 144.701 14.2777 144.807 14.4126C144.916 14.5452 145.06 14.6482 145.24 14.7216C145.42 14.795 145.623 14.8317 145.848 14.8317C146.082 14.8317 146.289 14.7902 146.469 14.7074C146.649 14.6245 146.79 14.5097 146.892 14.3629C146.993 14.2161 147.044 14.0469 147.044 13.8551C147.044 13.661 146.99 13.4893 146.881 13.3402C146.775 13.1887 146.621 13.0703 146.419 12.9851C146.221 12.8999 145.984 12.8572 145.709 12.8572H145.031V11.728H145.709C145.941 11.728 146.146 11.6877 146.324 11.6072C146.503 11.5268 146.643 11.4155 146.743 11.2734C146.842 11.129 146.892 10.9609 146.892 10.7692C146.892 10.5869 146.848 10.4271 146.76 10.2898C146.675 10.1501 146.554 10.0412 146.398 9.96307C146.244 9.88494 146.064 9.84588 145.858 9.84588C145.65 9.84588 145.459 9.88376 145.287 9.95952C145.114 10.0329 144.975 10.1383 144.871 10.2756C144.767 10.4129 144.711 10.5739 144.704 10.7585H143.23C143.238 10.3395 143.357 9.97017 143.589 9.65057C143.821 9.33097 144.134 9.0812 144.527 8.90128C144.922 8.71899 145.368 8.62784 145.865 8.62784C146.367 8.62784 146.806 8.71899 147.183 8.90128C147.559 9.08357 147.852 9.32978 148.06 9.63991C148.271 9.94768 148.375 10.2933 148.373 10.6768C148.375 11.084 148.248 11.4238 147.993 11.696C147.739 11.9683 147.409 12.1411 147.002 12.2145V12.2713C147.537 12.34 147.944 12.5258 148.223 12.8288C148.505 13.1295 148.645 13.5059 148.642 13.9581C148.645 14.3724 148.525 14.7405 148.284 15.0625C148.045 15.3845 147.714 15.6378 147.293 15.8224C146.872 16.0071 146.389 16.0994 145.844 16.0994ZM152.368 16H149.79V8.72727H152.39C153.121 8.72727 153.751 8.87287 154.279 9.16406C154.807 9.45289 155.213 9.86837 155.497 10.4105C155.783 10.9527 155.927 11.6013 155.927 12.3565C155.927 13.1141 155.783 13.7652 155.497 14.3097C155.213 14.8542 154.805 15.272 154.272 15.5632C153.742 15.8544 153.107 16 152.368 16ZM151.328 14.6825H152.305C152.759 14.6825 153.141 14.602 153.452 14.4411C153.764 14.2777 153.998 14.0256 154.155 13.6847C154.313 13.3414 154.393 12.8987 154.393 12.3565C154.393 11.8191 154.313 11.38 154.155 11.0391C153.998 10.6982 153.765 10.4472 153.455 10.2862C153.145 10.1252 152.763 10.0447 152.308 10.0447H151.328V14.6825Z" fill="white"/>
<path d="M162.5 3C162.5 2.72386 162.276 2.5 162 2.5H157.5C157.224 2.5 157 2.72386 157 3C157 3.27614 157.224 3.5 157.5 3.5H161.5V7.5C161.5 7.77614 161.724 8 162 8C162.276 8 162.5 7.77614 162.5 7.5V3ZM157.354 8.35355L162.354 3.35355L161.646 2.64645L156.646 7.64645L157.354 8.35355Z" fill="white"/>
</svg>
