<svg style="background:none;" xmlns="http://www.w3.org/2000/svg" width="38" height="24" fill="none" viewBox="0 0 38 24"><path stroke="#fff" stroke-width=".5" d="M31.7 22.8Zm0 0v-1l-.1-.2v-.2l-.2-.2-.1-.2v-.1l-.2-.3v-.4l-.2-.2c0-.2-.2-.3-.3-.4l-.2-.3v-.1l-.3-.6V18l.1-.3.1-.4v-.1l.2-.1V17c.1-.1.1-.2 0-.2v-.1h.3l.2-.1.3-.3v-.1h.1V16h.1c0-.2.1-.3.2-.3l.2-.2.4-.2c.1-.1 0-.3.2-.3l.1-.2.2-.1h.2l.2-.2v-.2h-.1v-.4s0-.1 0 0h.1l.2-.1h.1v-.4h-.1v.1h-.5v-.1h.2l.1-.1h.2l.1.1.1.1v.1h.1v.5l.1-.2v-.4h-.1v-.1h-.2l-.1-.4v-.3h-.5.1v-.4l-.3-.4v-.2l-.1-.2h-.2l-.1-.1h-.1l-.2-.2.6.2V11l-.1-.3v-.1s-.1 0 0 0v-.1l.1-.3c.1 0 0 0 0 0v1l.2.1h.1v.2h.2v.7h.1V12l.2-.5v-.7l-.2-.1-.1-.2-.2-.2h.2l.2.1h.1v.2h.1v-.2l.2-.2.1-.4v-.4l-.1-.1v-.4h.1v-.2h.2l.3-.3h.2l.3-.1.3-.2h.1V8l.1-.2h.3l.1-.1h.3l.1-.2v-.1l-.1.1h-.3v-.1l-.2-.2h-.1V5.9l.1-.1.2-.1v-.1h.2v-.2h.2l.1-.1h.1V5h-.1v-.2h.4l.1-.2.2-.1.2-.2h.1v-.1l-.1-.1V4h-.4v-.2l-.1-.2h-.2l-.3-1-.1-.2h-.2l-.2.2h-.2l-.2-.2H35v1.9h-.1v.2h-.4l-.1.1v.2l-2.1.5-.2.3-.1.1V6l-.1.1-.3.2h.1v.5l-.3.3h-.3s-.1.1-.2 0c-.1 0-.3 0-.4.2h-.1l-.2.1c-.1 0 0 0 0 0v.4l-.5.5h-.1l-.2.2-.4.3-.3.1v.2h-.2l-.4.1h-.4l-.3-.1V9l.1-.1v-.5l.1-.1h.1l.1-.1v-.6h-.1v-.2l-.3-.4h-.1l-.2.1v.2H27s0 .1 0 0h-.1V7h.1l.1-.2v-.7l-.1-.2h-.8c-.1 0 0 0 0 0v.2H26v.4h-.1s0-.1 0 0h-.2l-.1.2v.7h-.1V8l.1.1v.8l-.2.2-.1.2-.3.1-.2-.1-.2-.4v-.6c-.1-.1 0-.3 0-.4v-1l.2-.4v-.2l-.1.2v.1l-.2.2-.1.1-.3.3V7l.1-.2.2-.4.1-.2.1-.2.1-.2h.2v-.1h.1V6l.1-.1h.2l.1-.1.2-.1v-.1h1.1l-.1-.1-.1-.3H26v-.3h-.2l-.3.1h-.2l-.2.2h-.4l-.2-.1-.1-.1H24v-.2l.2-.3v-.1l-.3.2-.4.3h-.2l-.3.2-.1.2h-.3V5h-.1l-.3.2h-.4l.1-.2h.1l.2-.2.2-.2.2-.2.2-.1.2-.2V4h-1l-.1-.1h-.2v-.1h-.3l-.2-.2h-1v-.2l-.1-.1L20 3v.3h-3.6A44.6 44.6 0 0 1 4.3 1v.2h.1v.1l-.1.1V2H4l-.1.2h-.1l.1-.3.2-.1v-.2h-.2l-.4-.2-.1-.1-.2-.1H3v1.5c-.1 0 0 0 0 0V3h.2l.1.1.1.1h-.2s0-.1-.1 0H3v.2l-.1.1v.2l-.2.2V4l-.2.5s0 .2-.2.3V5h-.1v.1l-.1.2h-.2l-.1.3V6l-.2 1-.3.6h-.1v.7c.2 0 .2.2.1.3V9c-.1.2 0 .3 0 .4l.2.4v.2l.1.1.1.2h.1V10H2v.5h-.1l-.1-.2v.8H2v.2l-.1.1v.4l.1.2v.2l.2.2v.1l.1.1v.2l.1.2v.5l.1.1c.2 0 .2 0 .3.2H3v.1l.2.2.2.2h.2l.1.2.1.2h.1l.1.1v.3l.2.2v.5L6 16v.1l2.5 1.5 2 .3v-.4l1.3.1.1.2.1.2.1.1.2.3h.1v.1h.2v.2l.1.1.1.2v.3l.1.2v.1l.2.2.1.2h.2c0 .2.1.2.2.3h.2l.2.1.4-.6h1l.4.7.1.2v.1l.1.2.2.2v.2h.1v.1l.2.2h.1l.1.2v.3l.1.2v.2c.2 0 .2.3.4.4h.2l.4.2h.4l.1.1h.2V23l-.1-.2-.1-.4v-.3h.1v-.2l.1-.1.2-.2v-.1h.1l.1-.2h.2V21h.4v.2l.2-.2.1-.1h.1l.3-.3v-.5h.2v.2l.1-.1.2-.1h.4l.2-.1h.3l.7.1.1-.1h.3l.2.1v.1l.1.1h.2c.1.1.1.1.2 0h.5v-.2h.1l.2.1a60.2 60.2 0 0 0 .4.2v-.2l-.2-.1h-.1V20l.1-.2v-.2h-.2v.2H24l-.1-.2h-.1l-.1.1h-.2v-.2h.8l.3-.2h.5l.1-.2v.2h.4l.3-.2v.1h.5a237.8 237.8 0 0 1 .3.1h.1l.2.2.2.1h.4l.2-.1h.1v-.1h.6l.1.2v.1h.1l.3.2h.2v.4c.1.1 0 .2 0 .4l.1.3v.1h.1v.5l.3.2.2.1v.2l.1.1.3.5h.2v.1h.2l.1.3v.2h.1l.3-.1h.1V23h.1v.3-.1l.1-.2h.1v-.3Z"/></svg>